<svg xmlns="http://www.w3.org/2000/svg" viewBox="0 0 150 46" width="150" height="46" role="img" aria-label="SATIM numéro vert 3020 appel gratuit">
  <rect x="1" y="1" width="148" height="44" rx="10" fill="#eafaf0" stroke="#2ecc71"/>
  <circle cx="24" cy="23" r="13" fill="#27ae60"/>
  <path d="M19 17.5c-.6 0-1 .5-1 1 0 4.5 3.6 8.1 8 8.1.5 0 1-.4 1-1v-2c0-.5-.4-1-1-1-.6 0-1.2-.1-1.7-.3-.4-.1-.9 0-1.1.3l-.7.7a9 9 0 0 1-2.9-2.9l.7-.7c.3-.3.4-.7.3-1.1-.2-.5-.3-1.1-.3-1.8 0-.5-.4-1-1-1z" fill="#fff"/>
  <text x="44" y="20" font-family="Arial, sans-serif" font-size="10" font-weight="700" fill="#1f8f4e">SATIM</text>
  <text x="44" y="33" font-family="Arial, sans-serif" font-size="15" font-weight="800" fill="#1f8f4e" letter-spacing="1">3020</text>
  <text x="90" y="27" font-family="Arial, sans-serif" font-size="8.5" fill="#2f9e5c">Appel gratuit</text>
</svg>
